<svg width="128" height="128" viewBox="0 0 128 128" xmlns="http://www.w3.org/2000/svg"><title>Artboard</title><path d="M63.995 2.023c11.61 0 22.318 2.862 32.124 8.587 9.805 5.724 17.566 13.485 23.284 23.285S127.987 54.402 128 66.02c0 13.942-4.07 26.484-12.207 37.624-8.14 11.14-18.654 18.848-31.545 23.122-1.494.28-2.603.086-3.328-.583-.724-.67-1.087-1.503-1.087-2.5 0-.17.016-2.294.047-6.376.03-4.08.043-7.814.037-11.2 0-5.39-1.446-9.337-4.34-11.838 3.174-.334 6.02-.832 8.54-1.494 2.52-.663 5.133-1.747 7.84-3.253 2.706-1.505 4.955-3.353 6.747-5.543 1.792-2.19 3.265-5.107 4.42-8.75 1.153-3.643 1.723-7.824 1.707-12.543 0-6.61-2.192-12.335-6.58-17.173 2.055-5.052 1.83-10.717-.67-16.995-1.556-.498-3.807-.194-6.753.914-2.946 1.107-5.502 2.328-7.667 3.663l-3.173 2.007c-5.164-1.447-10.496-2.17-15.996-2.17s-10.835.72-16.005 2.165c-.887-.61-2.066-1.36-3.537-2.25-1.472-.89-3.79-1.96-6.953-3.21-3.164-1.25-5.528-1.625-7.093-1.12-2.498 6.274-2.72 11.94-.663 16.994-4.387 4.835-6.58 10.56-6.58 17.173 0 4.72.567 8.885 1.703 12.496 1.135 3.612 2.594 6.53 4.377 8.75 1.782 2.22 4.02 4.08 6.71 5.576 2.69 1.496 5.304 2.578 7.84 3.247 2.535.67 5.382 1.17 8.54 1.503-2.17 2-3.532 4.862-4.09 8.586-1.165.554-2.416.97-3.75 1.246-1.335.277-2.918.414-4.75.41-1.833-.003-3.653-.6-5.46-1.79-1.808-1.193-3.348-2.93-4.62-5.21-1.058-1.772-2.407-3.22-4.046-4.34-1.64-1.12-3.015-1.785-4.125-1.996l-1.667-.252c-1.167 0-1.972.124-2.417.373-.445.25-.585.568-.42.957.165.39.414.778.746 1.167.333.39.696.724 1.088 1.004l.583.42c1.223.554 2.43 1.608 3.626 3.164 1.193 1.555 2.07 2.97 2.626 4.246l.84 1.923c.715 2.115 1.937 3.823 3.663 5.123 1.726 1.3 3.586 2.134 5.58 2.502 1.994.367 3.923.56 5.786.578 1.864.02 3.404-.08 4.62-.294l1.923-.326c0 2.115.014 4.573.045 7.372.032 2.8.044 4.314.038 4.54 0 .996-.36 1.83-1.083 2.502-.722.672-1.832.865-3.332.58-12.888-4.273-23.402-11.977-31.54-23.114C4.06 92.493-.006 79.948 0 65.995c0-11.61 2.86-22.318 8.577-32.123 5.718-9.806 13.48-17.568 23.285-23.286C41.668 4.868 52.377 2.006 63.992 2l.003.023zm-39.748 91.91c.168-.39-.027-.722-.584-.998-.553-.168-.91-.112-1.073.168-.17.388.022.72.58.998.497.334.857.278 1.08-.167h-.003zm2.585 2.833c.39-.28.333-.727-.168-1.34-.56-.497-1.005-.58-1.335-.252-.39.274-.334.717.167 1.33.56.56 1.005.644 1.335.252v.01zm2.5 3.747c.5-.39.5-.918 0-1.587-.444-.715-.917-.88-1.417-.494-.498.28-.498.777 0 1.493.497.715.97.91 1.418.588zm3.5 3.5c.446-.445.337-.974-.326-1.587-.67-.663-1.225-.745-1.67-.247-.498.444-.39.972.326 1.585.67.663 1.226.745 1.67.248zm4.75 2.08c.17-.612-.192-1.058-1.08-1.338-.835-.218-1.364-.024-1.588.583-.224.607.14 1.023 1.087 1.25.835.333 1.364.167 1.588-.5l-.005.006zm5.25.42c0-.724-.473-1.03-1.422-.918-.89 0-1.335.304-1.335.914 0 .715.472 1.018 1.414.91.89 0 1.334-.306 1.334-.916l.01.01zm4.826-.84c-.112-.61-.61-.858-1.493-.746-.893.165-1.282.58-1.167 1.246.115.666.613.888 1.494.667.88-.22 1.27-.61 1.166-1.166z" fill="#000" fill-rule="evenodd"/></svg>