<svg width="128" height="128" viewBox="0 0 128 128" xmlns="http://www.w3.org/2000/svg"><path d="M63.995 2.023c11.61 0 22.318 2.862 32.124 8.587 9.8 5.724 17.56 13.485 23.28 23.285s8.582 20.507 8.6 32.125c0 13.942-4.07 26.484-12.21 37.624s-18.656 18.848-31.547 23.122c-1.494.28-2.603.086-3.328-.583-.725-.67-1.088-1.503-1.088-2.5 0-.17.015-2.294.046-6.376.03-4.08.042-7.814.036-11.2 0-5.39-1.447-9.337-4.34-11.838 3.173-.34 6.02-.84 8.54-1.5 2.52-.665 5.132-1.75 7.84-3.255 2.705-1.505 4.954-3.353 6.746-5.543 1.79-2.19 3.264-5.108 4.42-8.75 1.152-3.644 1.722-7.825 1.706-12.544 0-6.61-2.19-12.335-6.58-17.173 2.058-5.05 1.83-10.715-.67-16.993-1.553-.498-3.804-.194-6.75.914s-5.502 2.33-7.667 3.663L79.99 35.1c-5.164-1.447-10.496-2.17-15.996-2.17s-10.835.72-16.005 2.165c-.89-.61-2.07-1.36-3.54-2.25-1.47-.89-3.79-1.96-6.957-3.21s-5.53-1.625-7.094-1.12c-2.498 6.274-2.72 11.94-.663 16.994-4.386 4.83-6.58 10.56-6.58 17.17 0 4.72.57 8.882 1.704 12.493 1.136 3.61 2.595 6.53 4.378 8.75 1.782 2.22 4.02 4.08 6.71 5.575 2.69 1.496 5.304 2.58 7.84 3.247 2.535.67 5.382 1.17 8.54 1.502-2.17 2-3.53 4.86-4.09 8.585-1.165.554-2.416.97-3.75 1.246-1.335.278-2.918.415-4.75.41-1.83-.002-3.65-.6-5.46-1.79-1.808-1.192-3.348-2.93-4.62-5.21-1.058-1.77-2.407-3.22-4.046-4.34-1.64-1.12-3.016-1.784-4.126-1.995l-1.666-.25c-1.167 0-1.972.123-2.417.372-.445.25-.585.568-.42.957.165.39.414.776.746 1.165.333.39.696.723 1.09 1.003l.583.42c1.223.554 2.43 1.61 3.626 3.164 1.192 1.555 2.07 2.97 2.625 4.246l.84 1.925c.715 2.114 1.937 3.822 3.663 5.122 1.725 1.3 3.585 2.134 5.58 2.502 1.993.365 3.922.56 5.785.576 1.864.02 3.404-.08 4.62-.294l1.923-.327c0 2.115.013 4.573.044 7.372.032 2.8.044 4.31.038 4.54 0 .993-.36 1.83-1.082 2.5-.72.67-1.83.864-3.33.58-12.89-4.274-23.402-11.978-31.54-23.115C4.06 92.492-.004 79.945 0 65.995c0-11.61 2.86-22.32 8.577-32.123 5.718-9.806 13.48-17.568 23.285-23.286C41.668 4.868 52.377 2.006 63.992 2l.003.023zm-39.748 91.91c.168-.39-.027-.722-.584-.998-.553-.168-.91-.112-1.073.168-.17.388.022.72.58.998.497.34.857.28 1.08-.16h-.003zm2.585 2.833c.39-.28.333-.727-.168-1.34-.56-.497-1.005-.58-1.335-.252-.39.274-.34.717.16 1.33.56.56 1.004.644 1.334.252v.01zm2.5 3.747c.5-.39.5-.918 0-1.587-.444-.715-.917-.88-1.417-.494-.498.28-.498.777 0 1.493.497.715.97.91 1.418.588zm3.5 3.5c.446-.445.337-.974-.326-1.587-.67-.663-1.225-.745-1.67-.247-.498.44-.39.97.326 1.58.67.66 1.226.742 1.67.25zm4.75 2.08c.17-.612-.192-1.058-1.08-1.338-.835-.218-1.364-.024-1.588.583-.224.607.14 1.023 1.087 1.25.84.333 1.37.167 1.59-.5v.006zm5.25.42c0-.724-.473-1.03-1.422-.918-.89 0-1.335.304-1.335.914 0 .71.472 1.01 1.414.91.89 0 1.33-.31 1.33-.92l.01.01zm4.826-.84c-.112-.61-.61-.858-1.493-.746-.893.165-1.282.58-1.167 1.246.115.666.613.888 1.494.667.88-.22 1.27-.61 1.166-1.166z" fill-rule="evenodd"/></svg>