<svg width="199" height="180" viewBox="0 0 199 180" xmlns="http://www.w3.org/2000/svg"><path d="M185.218 12.783l3.39-.782 5.48-12-11.48 6.785-.78 2.87-2.87-.522V7.566l7.258-6.048.306-1.517-14.347 6-5.218 3.39-15.652 4.178-24 14.087-15.13 16.173L102.782 48h-5.74l-21.39-5.74L68.348 36l-13.043-2.608-18.26 4.695-6.522.26-15.913 1.827L0 34.957l.783 5.478 3.035 4.254 6.356 4.352 12.262 1.565 4.695-2.088-5.215 11.217.523 17.478-2.61 5.74L9.655 87.91l.26 39.39-1.564 2.87-2.09 2.87v3.653l4.698 3.652h3.13l1.044-3.652 1.046-8.348.52-28.695 2.61-3.65 4.696.522 13.044-3.13 1.565 3.65 15.65 30.263 1.046 6.26-1.045 6.783 2.61 2.61h5.74l1.304-2.088-.523-4.174-1.826-6.783-12.434-26.61v-6.26h7.74l4.174-1.565 22.435 13.73h19.303l-3.13 17.575-14.087 3.13L81.393 126l-3.652.26-3.39 2.61-.784 4.435 9.428 2.292 6.485.056 8.345-1.044-.783 10.953L93.13 162l-.52 7.305-3.392 2.87 3.39 6.26L96.263 180l3.13-1.042 1.305-5.22-.633-8.01 6.632-20.945 7.826-13.305 2.348-.52 22.437-21.75 7.304-22.077-1.043-11.476 14.61-25.565 8.346 1.564 12.522 11.48 3.13 7.825 2.61 2.086 5.74-1.044.78-1.303 3.392-1.305 2.61-10.957-3.653-5.74-6.783-23.477 2.088-4.696" fill-rule="evenodd"/></svg>