<svg width="328" height="200" viewBox="0 0 328 200" xmlns="http://www.w3.org/2000/svg"><g fill="#000" fill-rule="evenodd"><path d="M269.23 32.395c-10.464 6.71-20.83 13.357-31.09 19.94-2.26-3.034-4.18-6.067-6.546-8.7-7.248-8.064-16.465-10.15-26.537-7.174-14.554 4.3-14.363 21.458-6.997 28.59 4.027 3.897 8.886 6.432 13.89 8.714 9.863 4.5 19.88 8.676 29.644 13.377 9.687 4.665 18.702 10.425 26.04 18.472 7.848 8.608 11.854 18.865 12.97 30.325.975 9.993.257 19.82-3.616 29.206-6.012 14.577-16.98 24.14-31.63 29.06-26.137 8.773-51.772 7.327-76.165-6.104-11.787-6.49-20.582-16.166-26.95-28.015-.203-.376-.393-.76-.565-1.15-.053-.12-.025-.278-.054-.69 10.738-6.21 21.577-12.48 32.4-18.742 2.416 3.22 4.612 6.377 7.04 9.343 11.99 14.642 30.225 17.39 44.76 13.067 5.283-1.57 9.75-4.49 12.572-9.38 4.188-7.262 2.695-16.953-4.09-22.277-4.435-3.482-9.522-6.278-14.628-8.737-9.764-4.7-19.843-8.747-29.617-13.43-8.808-4.22-16.807-9.72-23.37-17.076-8.698-9.746-12.576-21.342-13.163-34.224-.63-13.86 2.706-26.457 11.8-37.195 7.44-8.788 16.993-14.28 28.066-17.104 13.636-3.478 27.32-3.32 40.843.517 15.146 4.296 27.7 14.96 34.993 29.388M0 162.583c10.83-6.546 21.665-13.098 32.662-19.746.878 1.477 1.528 2.834 2.414 4.012 2.902 3.857 5.536 8.003 8.918 11.396 7.195 7.218 20.993 5.94 26.754 2.568 5.283-3.093 7.35-8.164 8.226-13.838.42-2.735.587-5.535.59-8.306.035-44.38.024-88.763.025-133.144 0-3.166 0-3.17 3.1-3.17 11.643 0 23.287.037 34.93-.036 1.832-.01 2.437.44 2.434 2.373-.055 44.31-.046 88.62-.04 132.93 0 9.9-.982 19.637-4.607 28.964-5.59 14.39-15.668 24.277-30.335 28.973-18.51 5.928-37.018 5.66-55-2.174-13.745-5.988-23.262-16.453-29.78-29.78-.122-.247-.157-.537-.292-1.023M309.556 1.246c11.562 0 18.044 6.584 18.044 16.297 0 9.714-6.537 16.298-18.044 16.298-11.562 0-18.37-6.583-18.37-16.297s6.808-16.297 18.37-16.297m0 23.097c6.374 0 10.048-2.59 10.048-6.8s-3.673-6.8-10.048-6.8c-6.376 0-10.373 2.59-10.373 6.8s3.997 6.8 10.373 6.8M309.88 44.63l17.072-8.957v10.36l-5.727 2.375c-1.62.756-3.565 1.51-5.835 2.483v.216c2.27.756 4.214 1.51 5.835 2.16l5.727 2.05v9.93l-17.505-8.96-17.613 9.5V55.423l6.267-2.806c1.838-.864 3.675-1.62 5.836-2.482v-.216c-2.16-.756-3.998-1.512-5.835-2.267l-6.266-2.59v-9.93l18.045 9.498zM326.952 70.208v22.88h-7.78V79.49h-6.7v11.656h-7.78V79.49h-12.858v-9.282M309.556 97.08c11.562 0 18.044 6.584 18.044 16.298 0 9.714-6.537 16.298-18.044 16.298-11.562 0-18.37-6.584-18.37-16.298 0-9.714 6.808-16.297 18.37-16.297m0 23.098c6.374 0 10.048-2.59 10.048-6.8s-3.673-6.8-10.048-6.8c-6.376 0-10.373 2.59-10.373 6.8s3.997 6.8 10.373 6.8M291.834 154.82l11.78-6.044v-3.56h-11.78v-9.283h35.118v13.275c0 7.555-2.593 14.03-11.346 14.03-5.025 0-8.32-2.266-10.157-5.666l-13.616 7.61V154.82zm19.126-9.606v3.346c0 3.67 1.62 5.613 4.646 5.613s3.998-1.943 3.998-5.613v-3.346h-8.644zM326.952 169.928v10.36c0 10.686-4.97 18.025-17.396 18.025-12.426 0-17.72-7.34-17.72-17.484v-10.902h35.116zm-27.662 9.82c0 5.075 2.053 9.068 10.265 9.068s9.94-3.993 9.94-9.067v-.54H299.29v.54z"/></g></svg>