<svg width="328" height="200" viewBox="0 0 328 200" xmlns="http://www.w3.org/2000/svg"><path d="M269.23 32.395c-10.464 6.71-20.83 13.357-31.09 19.94-2.26-3.034-4.18-6.067-6.546-8.7-7.248-8.064-16.465-10.15-26.537-7.174-14.554 4.3-14.363 21.46-6.997 28.59 4.027 3.9 8.886 6.44 13.89 8.72 9.863 4.5 19.88 8.68 29.644 13.38 9.687 4.666 18.702 10.426 26.04 18.47 7.848 8.61 11.854 18.867 12.97 30.327.975 9.993.257 19.82-3.616 29.206-6.012 14.577-16.98 24.14-31.63 29.06-26.137 8.773-51.772 7.327-76.165-6.104-11.787-6.49-20.582-16.165-26.95-28.014-.203-.376-.393-.76-.565-1.15-.053-.12-.025-.28-.054-.69 10.738-6.21 21.577-12.48 32.4-18.742 2.416 3.22 4.612 6.378 7.04 9.344 11.99 14.643 30.225 17.39 44.76 13.068 5.283-1.57 9.75-4.49 12.572-9.38 4.188-7.26 2.695-16.95-4.09-22.274-4.435-3.48-9.522-6.276-14.628-8.735-9.764-4.7-19.843-8.747-29.617-13.43-8.8-4.22-16.8-9.72-23.37-17.076-8.69-9.75-12.57-21.346-13.16-34.226-.63-13.86 2.71-26.457 11.8-37.195 7.44-8.788 16.998-14.28 28.07-17.104 13.637-3.476 27.32-3.32 40.844.52 15.146 4.295 27.7 14.96 34.993 29.387M0 162.58c10.83-6.546 21.665-13.098 32.662-19.746.878 1.477 1.528 2.834 2.414 4.012 2.902 3.85 5.536 8 8.918 11.39 7.195 7.22 20.993 5.94 26.754 2.57 5.283-3.094 7.35-8.165 8.226-13.84.42-2.734.587-5.534.59-8.305.035-44.38.024-88.76.025-133.142 0-3.165 0-3.17 3.1-3.17 11.64 0 23.28.038 34.93-.035 1.83-.01 2.43.44 2.43 2.373-.06 44.31-.05 88.62-.04 132.93 0 9.9-.98 19.636-4.61 28.963-5.59 14.39-15.67 24.28-30.338 28.974-18.51 5.928-37.018 5.66-55-2.174C16.322 187.392 6.81 176.93.29 163.6c-.12-.246-.156-.536-.29-1.022M309.555 1.246c11.562 0 18.044 6.584 18.044 16.297 0 9.714-6.54 16.298-18.05 16.298-11.56 0-18.37-6.58-18.37-16.29s6.81-16.3 18.37-16.3m0 23.1c6.373 0 10.05-2.59 10.05-6.8s-3.675-6.8-10.05-6.8c-6.376 0-10.373 2.59-10.373 6.8s4 6.8 10.375 6.8m.324 20.286l17.07-8.956v10.36l-5.728 2.374c-1.62.76-3.566 1.51-5.836 2.486v.216c2.27.756 4.213 1.51 5.834 2.16l5.73 2.05v9.93l-17.504-8.96-17.613 9.5v-10.37l6.27-2.805c1.84-.86 3.675-1.62 5.836-2.48v-.215c-2.16-.76-4-1.515-5.838-2.27l-6.267-2.59v-9.93l18.046 9.5zm17.07 25.58v22.88h-7.78v-13.6h-6.7V91.15h-7.78V79.49h-12.86v-9.282M309.55 97.08c11.562 0 18.044 6.584 18.044 16.298 0 9.714-6.538 16.298-18.045 16.298-11.56 0-18.37-6.584-18.37-16.298 0-9.714 6.81-16.297 18.37-16.297m0 23.1c6.373 0 10.05-2.59 10.05-6.8s-3.676-6.8-10.05-6.8c-6.377 0-10.374 2.59-10.374 6.8s3.992 6.8 10.37 6.8m-17.72 34.64l11.78-6.04v-3.56h-11.78v-9.28h35.114v13.277c0 7.555-2.59 14.03-11.344 14.03-5.025 0-8.32-2.266-10.157-5.666l-13.62 7.61v-10.37zm19.122-9.6v3.35c0 3.67 1.62 5.613 4.644 5.613s4-1.943 4-5.613v-3.346h-8.646zm15.99 24.717v10.36c0 10.686-4.97 18.025-17.396 18.025s-17.72-7.34-17.72-17.484V169.93h35.116zm-27.66 9.82c0 5.075 2.05 9.068 10.263 9.068s9.94-3.992 9.94-9.066v-.54h-20.2v.54z" fill-rule="evenodd"/></svg>