<svg width="328" height="200" viewBox="0 0 328 200" xmlns="http://www.w3.org/2000/svg"><path d="M269.23 32.395c-10.464 6.71-20.83 13.357-31.09 19.94-2.26-3.034-4.18-6.067-6.546-8.7-7.248-8.064-16.465-10.15-26.537-7.174-14.554 4.3-14.363 21.46-6.997 28.59 4.027 3.9 8.886 6.434 13.89 8.716 9.863 4.5 19.88 8.676 29.644 13.377 9.687 4.665 18.702 10.425 26.04 18.472 7.848 8.608 11.854 18.865 12.97 30.325.975 9.992.257 19.82-3.616 29.205-6.012 14.577-16.98 24.14-31.63 29.06-26.137 8.773-51.772 7.327-76.165-6.104-11.787-6.49-20.582-16.164-26.95-28.013-.203-.376-.393-.76-.565-1.15-.053-.12-.025-.278-.054-.69 10.738-6.21 21.577-12.48 32.4-18.742 2.416 3.22 4.612 6.377 7.04 9.343 11.99 14.642 30.225 17.39 44.76 13.067 5.283-1.57 9.75-4.49 12.572-9.38 4.188-7.262 2.695-16.953-4.09-22.277-4.435-3.482-9.522-6.278-14.628-8.737-9.764-4.7-19.843-8.746-29.617-13.43-8.806-4.22-16.805-9.72-23.37-17.075-8.696-9.746-12.574-21.342-13.16-34.224-.63-13.86 2.705-26.456 11.8-37.194 7.44-8.788 16.992-14.28 28.065-17.104 13.636-3.477 27.32-3.32 40.843.518 15.146 4.296 27.7 14.96 34.993 29.388M0 162.583c10.83-6.546 21.665-13.098 32.662-19.746.878 1.477 1.528 2.834 2.414 4.012 2.902 3.855 5.536 8 8.918 11.394 7.195 7.218 20.993 5.94 26.754 2.568 5.283-3.093 7.35-8.164 8.226-13.838.42-2.735.587-5.535.59-8.306.035-44.38.024-88.764.025-133.145 0-3.166 0-3.17 3.1-3.17 11.64 0 23.285.037 34.93-.036 1.83-.01 2.435.44 2.432 2.372-.055 44.31-.046 88.62-.04 132.93 0 9.9-.982 19.636-4.607 28.963-5.59 14.39-15.668 24.277-30.335 28.973-18.51 5.927-37.017 5.66-55-2.175C16.326 187.394 6.81 176.93.29 163.6c-.12-.246-.156-.536-.29-1.022M309.555 1.246c11.562 0 18.044 6.584 18.044 16.297 0 9.714-6.538 16.298-18.045 16.298-11.562 0-18.37-6.58-18.37-16.295s6.808-16.297 18.37-16.297m0 23.097c6.374 0 10.048-2.59 10.048-6.8s-3.673-6.8-10.048-6.8c-6.376 0-10.373 2.59-10.373 6.8s3.997 6.8 10.373 6.8m.324 20.286l17.07-8.956v10.36l-5.726 2.375c-1.62.755-3.565 1.51-5.835 2.482v.217c2.27.755 4.213 1.51 5.834 2.16l5.727 2.05v9.93l-17.504-8.96-17.613 9.5V55.422l6.267-2.806c1.84-.864 3.676-1.62 5.837-2.482v-.216c-2.16-.758-3.998-1.514-5.835-2.27l-6.266-2.59v-9.93l18.045 9.5zm17.07 25.58v22.88h-7.78v-13.6h-6.7v11.656h-7.78V79.49h-12.857v-9.282m17.722 26.872c11.562 0 18.044 6.584 18.044 16.298 0 9.714-6.538 16.298-18.045 16.298-11.562 0-18.37-6.584-18.37-16.298 0-9.714 6.808-16.297 18.37-16.297m0 23.1c6.374 0 10.048-2.59 10.048-6.8s-3.673-6.8-10.048-6.8c-6.376 0-10.373 2.59-10.373 6.8s3.997 6.8 10.373 6.8m-17.722 34.64l11.78-6.043v-3.56h-11.78v-9.283h35.118v13.275c0 7.554-2.592 14.03-11.345 14.03-5.025 0-8.32-2.267-10.157-5.667l-13.617 7.61V154.82zm19.126-9.605v3.346c0 3.67 1.62 5.614 4.645 5.614s3.998-1.943 3.998-5.613v-3.345h-8.644zm15.99 24.714v10.36c0 10.685-4.97 18.024-17.395 18.024-12.426 0-17.72-7.34-17.72-17.484v-10.903h35.116zm-27.66 9.82c0 5.074 2.052 9.067 10.264 9.067s9.94-3.993 9.94-9.067v-.54H299.29v.54z" fill-rule="evenodd"/></svg>