<svg width="128" height="128" viewBox="0 0 128 128" xmlns="http://www.w3.org/2000/svg"><title>Artboard</title><path d="M75.422 65.636c-.176.266-.29.448-.41.624-1.146 1.64-2.43 3.137-4.182 4.173-2.347 1.388-4.892 1.96-7.543 1.385-1.36-.295-2.627-1.057-3.91-1.664-.294-.14-.455-.143-.718.012-1.1.648-2.17 1.375-3.334 1.88-2.066.893-4.24 1.394-6.49.8-1.408-.373-2.627-1.167-3.728-2.122-.782-.677-.833-.677-1.625-.025-1.424 1.17-3.068 1.926-4.79 2.55-2.134.775-4.335 1.25-6.586 1.473-2.748.272-5.295-.194-7.154-2.453-1.49-1.808-1.888-3.907-.977-6.088.997-2.39 2.152-4.714 3.236-7.067.565-1.226 1.134-2.45 1.682-3.683.1-.227.14-.49.153-.74.022-.46.116-.964-.416-1.24-.542-.282-1.183-.232-1.58.272-.5.63-.94 1.32-1.313 2.034-1.23 2.362-2.42 4.745-3.62 7.122-.9 1.783-1.784 3.574-2.693 5.35-.86 1.688-2.48 2.33-4.232 1.675-.59-.222-.96-.658-1.06-1.32-.142-.94.167-1.783.5-2.625.73-1.84 1.467-3.68 2.195-5.52.39-.988.78-1.976 1.146-2.973.256-.697.333-1.436.034-2.12-.23-.528-.687-.91-1.326-.853-.697.062-1.246.427-1.51 1.075-.925 2.284-1.814 4.585-2.724 6.877-1.09 2.743-2.162 5.494-3.297 8.218-.42 1.007-1.055 1.924-2.12 2.355-.54.22-1.15.355-1.734.363-1.813.024-3.38-.582-4.45-2.12-.846-1.226-1.052-2.588-.64-4.03.38-1.333.76-2.667 1.16-3.996.376-1.26.78-2.51 1.17-3.767.365-1.168.707-2.345 1.103-3.504.78-2.28 1.41-4.628 2.645-6.72.846-1.43 2.216-2.205 3.787-2.684 1.644-.502 3.043.13 4.446.827.532.262 1.057.544 1.603.774.76.32 1.456.118 2.07-.383.504-.41 1.013-.82 1.477-1.272 1.16-1.133 3.664-1.343 4.888-.025.282.303.614.56.926.834.64.565.906.622 1.648.204 1.763-.994 3.59-.856 5.384-.22 1.043.37 1.666 1.257 2.064 2.305.586 1.543.34 3.033-.247 4.483-1.08 2.67-2.256 5.297-3.31 7.975-.624 1.59-1.15 3.222-1.6 4.87-.183.67-.184 1.465-.013 2.14.258 1.02 1.192 1.354 2.137 1.474 1.44.182 2.853-.086 4.232-.467 1.178-.325 2.338-.725 3.488-1.14.555-.202 1.072-.51 1.602-.78.453-.228.488-.564.25-.985-.49-.862-1.002-1.712-1.43-2.602-.91-1.883-1.658-3.826-1.46-5.973.176-1.88.854-3.51 2.588-4.5 2.56-1.46 4.637-1.056 6.518 1.124 1.628 1.885 2.165 4.155 1.467 6.587-.39 1.36-.95 2.675-1.485 3.99-.147.364-.062.597.17.81 1.076 1.008 2.305 1.79 3.67 2.344.513.21 1.057.365 1.602.475 1.172.234 2.26-.045 3.236-.708.466-.315.477-.61.154-1.05-2.246-3.063-3.136-6.473-2.46-10.22.252-1.404.9-2.73 2.407-3.133.932-.25 1.984-.24 2.952-.117 1.573.2 2.998.828 3.964 2.182 1.16 1.625 1.456 3.404.957 5.347-.36 1.395-1.09 2.582-1.897 3.735-.32.457-.33.878.104 1.184.67.47 1.35.988 2.108 1.26 1.646.593 3.353.54 5.01.008 1.814-.583 3.088-1.786 3.815-3.57.868-2.136.88-4.372.835-6.617-.035-1.752-.096-3.506-.148-5.26-.02-.626-.12-.662-.717-.54-1.573.32-3.154.6-4.733.89-.497.09-1 .15-1.497.24-1.085.194-1.98-.25-2.04-1.52-.064-1.278-.25-2.55-.38-3.826-.008-.072-.014-.144-.017-.217-.074-1.5.29-2.318 2.092-2.252 1.86.068 3.722.13 5.58.227.915.048 1.237-.183 1.297-1.09.045-.704.065-1.41.11-2.114.065-1.057.306-1.308 1.38-1.266.64.026 1.285.137 1.912.278.883.2 1.346.82 1.408 1.7.05.72.028 1.445.017 2.168-.01.51.15.785.722.843 1.653.17 3.3.4 4.95.595.78.093 1.217.408 1.323.988.18 1.006-.036 1.695-.796 1.97-1.062.384-2.16.677-3.26.948-.767.19-1.564.27-2.345.415-.525.096-.81.372-.805.962.02 2.91-.047 5.825.038 8.735.044 1.526.273 3.055.923 4.48.526 1.156 1.423 1.61 2.67 1.402 1.832-.307 3.51-.95 4.972-2.11.81-.642 1.345-1.428 1.385-2.515.073-1.988.172-3.976.288-5.96.035-.573.1-1.167.29-1.7.107-.298.496-.69.767-.698 1.496-.045 3-.06 4.49.07.936.08 1.58.956 1.53 1.948-.067 1.388-.247 2.77-.38 4.156-.162 1.707-.312 3.418-.494 5.124-.184 1.728 1.198 2.584 2.565 2.6 1.148.015 1.825-.413 2.31-1.627.507-1.256.807-2.618 1.024-3.96.31-1.908.455-3.84.682-5.76.093-.786.582-1.39 1.19-1.52.705-.15 1.628.135 1.86.778.192.54.148 1.196.08 1.786-.248 2.187-.607 4.363-.812 6.554-.126 1.346.63 2.304 1.937 2.702.65.198 1.328.354 2.003.432 1.184.135 2.024-.73 2.27-2.077.21-1.132.24-2.298.34-3.45.12-1.368.137-2.754.37-4.102.344-1.996 1.634-3.807 4.023-4.388 1.434-.35 2.88-.39 4.31-.225 2.184.25 4.468 1.735 5.166 4.243.53 1.906.318 3.747-.305 5.58-.723 2.127-2.043 3.783-3.887 5.044-.17.115-.27.336-.4.51.23.1.465.295.695.29 2.204-.033 4.282-.537 6.185-1.69.43-.26.897-.458 1.35-.674.418-.198.663.036.547.395-.193.603-.426 1.24-.81 1.726-1.632 2.06-3.856 3.05-6.43 3.223-1.09.072-2.2-.074-3.298-.135-.83-.047-1.66-.12-2.49-.175-.42-.028-.664.15-.77.584-.66 2.726-1.01 5.5-1.353 8.28-.216 1.75-.542 3.495-.96 5.208-.228.93-.954 1.57-1.96 1.732-.6.097-1.044-.163-1.245-.723-.17-.47-.33-.966-.37-1.46-.197-2.44-.116-4.877.208-7.307.164-1.237.274-2.48.415-3.72.1-.86.23-1.72.31-2.582.064-.697-.094-.86-.762-.994-1.38-.276-2.762-.547-4.137-.85-.934-.21-1.662.122-2.295.766-.84.855-1.77 1.598-2.873 2.08-1.332.58-2.744.458-4.115.24-1.978-.314-3.557-1.353-4.68-3.02-.348-.518-.6-1.102-.873-1.666-.154-.316-.29-.44-.66-.25-1.316.67-2.625 1.355-3.98 1.928-1.51.64-3.115.863-4.72.415-1.565-.438-2.765-1.445-3.76-2.704-.27-.338-.53-.678-.947-1.208h.002zm45.073-6.263c-.018-.216-.018-.434-.054-.647-.2-1.234-1.436-1.786-2.434-1.042-.45.336-.86.778-1.17 1.25-1.027 1.576-1.49 3.38-1.955 5.176-.116.45-.197.928-.19 1.39.02.863.527 1.117 1.25.65 1.5-.966 2.61-2.308 3.545-3.8.57-.904 1.036-1.86 1.01-2.977zm-58.816.87c.01-.857-.19-1.65-.82-2.266-.35-.342-.788-.49-1.29-.334-.61.19-.937.64-.983 1.39-.088 1.45.535 2.698 1.177 3.926.33.63.644.61 1.07.026.598-.817.83-1.746.844-2.744zm-14.8-.277c-.16-.525-.264-1.075-.49-1.57-.29-.628-1.036-.91-1.695-.74-.698.184-.974.517-.902 1.377.064.748.236 1.495.435 2.222.145.534.37 1.058.636 1.544.358.654.732.66 1.084.026.485-.874.86-1.792.93-2.86z" fill-rule="evenodd"/></svg>