<svg width="128" height="128" viewBox="0 0 128 128" xmlns="http://www.w3.org/2000/svg"><path d="M75.422 65.636c-.176.266-.29.448-.41.624-1.146 1.64-2.43 3.137-4.182 4.173-2.347 1.388-4.892 1.96-7.543 1.385-1.36-.295-2.627-1.057-3.91-1.664-.294-.14-.455-.143-.718.012-1.1.648-2.17 1.375-3.34 1.88-2.068.893-4.24 1.394-6.49.8-1.41-.373-2.63-1.167-3.73-2.122-.78-.677-.833-.677-1.625-.025-1.424 1.17-3.068 1.92-4.79 2.55-2.134.77-4.335 1.25-6.586 1.47-2.748.27-5.295-.2-7.154-2.458-1.49-1.81-1.886-3.908-.975-6.09.998-2.39 2.153-4.713 3.237-7.066.567-1.226 1.136-2.45 1.684-3.683.1-.227.14-.49.154-.74.022-.46.116-.964-.416-1.24-.54-.28-1.18-.23-1.58.272-.5.63-.94 1.32-1.31 2.033-1.23 2.36-2.42 4.744-3.62 7.12-.9 1.783-1.787 3.574-2.696 5.35-.86 1.688-2.48 2.33-4.232 1.675-.59-.223-.96-.66-1.06-1.32-.142-.94.167-1.784.5-2.626.73-1.84 1.467-3.68 2.195-5.52.39-.99.78-1.978 1.145-2.975.256-.695.333-1.434.034-2.12-.23-.526-.688-.91-1.327-.85-.696.06-1.245.426-1.51 1.074-.924 2.283-1.813 4.584-2.723 6.876-1.09 2.745-2.16 5.496-3.296 8.22-.42 1.007-1.053 1.924-2.12 2.355-.54.22-1.15.356-1.732.364-1.813.026-3.38-.58-4.45-2.12C0 70.04-.206 68.675.208 67.23c.38-1.332.76-2.666 1.16-3.995.374-1.26.78-2.51 1.17-3.767.363-1.168.705-2.345 1.1-3.504.78-2.28 1.41-4.628 2.64-6.72.847-1.43 2.217-2.205 3.788-2.684 1.644-.502 3.043.13 4.446.827.532.262 1.057.544 1.603.774.76.32 1.455.12 2.07-.38.503-.41 1.012-.82 1.476-1.27 1.16-1.13 3.666-1.34 4.89-.022.283.304.615.56.927.835.64.565.908.62 1.65.204 1.763-.994 3.59-.856 5.384-.22 1.047.37 1.67 1.257 2.068 2.305.586 1.543.34 3.033-.247 4.483-1.08 2.67-2.254 5.3-3.31 7.977-.622 1.59-1.15 3.22-1.6 4.87-.18.67-.182 1.464-.01 2.14.257 1.02 1.19 1.353 2.136 1.473 1.44.18 2.853-.086 4.232-.467 1.178-.326 2.338-.726 3.488-1.14.555-.203 1.072-.51 1.602-.78.453-.23.488-.565.25-.986-.49-.862-1.002-1.712-1.43-2.602-.91-1.883-1.658-3.826-1.46-5.973.176-1.88.854-3.51 2.588-4.5 2.56-1.46 4.637-1.056 6.518 1.124 1.628 1.884 2.165 4.154 1.467 6.586-.39 1.36-.95 2.675-1.485 3.99-.147.364-.062.597.17.81 1.076 1.008 2.305 1.79 3.67 2.344.513.21 1.057.364 1.602.474 1.172.232 2.26-.047 3.236-.71.466-.315.477-.61.154-1.05-2.246-3.063-3.136-6.473-2.46-10.22.252-1.404.9-2.73 2.407-3.133.932-.25 1.984-.24 2.952-.116 1.573.2 2.998.83 3.964 2.18 1.16 1.626 1.45 3.405.95 5.348-.36 1.395-1.09 2.58-1.896 3.735-.32.457-.33.878.103 1.184.67.47 1.35.987 2.11 1.26 1.646.59 3.353.54 5.01.007 1.814-.583 3.09-1.786 3.815-3.57.868-2.136.88-4.372.835-6.617-.032-1.753-.093-3.507-.145-5.26-.02-.627-.12-.663-.717-.54-1.573.32-3.154.6-4.733.89-.497.09-1 .15-1.497.24-1.085.193-1.98-.25-2.04-1.52-.064-1.28-.25-2.55-.38-3.827-.008-.072-.014-.144-.017-.217-.075-1.5.29-2.318 2.09-2.252 1.86.07 3.723.13 5.58.23.916.047 1.24-.184 1.3-1.09.043-.705.063-1.41.11-2.115.063-1.06.304-1.31 1.38-1.268.64.025 1.283.136 1.91.277.88.2 1.344.82 1.406 1.7.05.72.028 1.444.017 2.167-.01.51.15.785.724.843 1.653.17 3.3.4 4.95.597.78.093 1.217.408 1.323.988.18 1.007-.038 1.696-.798 1.97-1.06.385-2.16.678-3.26.95-.766.19-1.563.27-2.344.415-.527.095-.81.37-.807.96.02 2.91-.047 5.825.04 8.735.042 1.527.27 3.056.92 4.48.528 1.157 1.425 1.61 2.67 1.403 1.834-.307 3.51-.95 4.974-2.11.81-.642 1.345-1.428 1.385-2.515.072-1.988.17-3.976.287-5.96.036-.573.1-1.167.29-1.7.108-.298.497-.69.768-.698 1.496-.046 3-.06 4.49.07.936.08 1.58.955 1.53 1.947-.067 1.39-.247 2.77-.38 4.158-.162 1.707-.312 3.418-.494 5.124-.182 1.73 1.2 2.586 2.567 2.6 1.148.017 1.825-.41 2.31-1.625.507-1.26.807-2.62 1.024-3.96.31-1.91.455-3.84.68-5.76.095-.79.584-1.39 1.19-1.52.707-.15 1.63.132 1.86.775.194.54.15 1.198.08 1.788-.246 2.186-.605 4.362-.81 6.553-.126 1.347.63 2.305 1.937 2.703.65.197 1.327.353 2.002.43 1.182.136 2.022-.73 2.27-2.076.21-1.133.24-2.3.34-3.45.12-1.37.135-2.755.37-4.103.342-1.994 1.632-3.805 4.02-4.386 1.435-.35 2.88-.39 4.31-.227 2.185.25 4.47 1.734 5.167 4.242.53 1.905.32 3.746-.304 5.58-.723 2.126-2.043 3.782-3.887 5.043-.17.116-.27.337-.4.51.23.1.463.296.693.29 2.202-.032 4.28-.536 6.183-1.69.43-.26.896-.457 1.35-.673.417-.2.662.037.546.396-.193.603-.426 1.24-.81 1.726-1.63 2.06-3.856 3.05-6.43 3.224-1.09.074-2.2-.072-3.298-.133-.83-.046-1.66-.12-2.49-.174-.42-.03-.663.15-.77.58-.66 2.726-1.01 5.5-1.352 8.28-.215 1.75-.54 3.495-.96 5.208-.227.93-.953 1.57-1.96 1.732-.6.096-1.043-.164-1.244-.724-.17-.47-.33-.965-.37-1.46-.198-2.44-.117-4.876.207-7.306.165-1.237.275-2.48.416-3.72.1-.86.23-1.72.31-2.582.06-.697-.098-.86-.766-.994-1.38-.276-2.76-.547-4.135-.85-.934-.21-1.66.12-2.295.766-.84.855-1.77 1.598-2.873 2.08-1.33.58-2.744.458-4.115.24-1.977-.314-3.556-1.353-4.68-3.02-.347-.518-.6-1.102-.872-1.666-.154-.317-.29-.44-.66-.25-1.316.67-2.625 1.354-3.98 1.927-1.51.64-3.115.866-4.72.418-1.565-.438-2.765-1.445-3.76-2.704-.27-.338-.53-.678-.947-1.208h.002zm45.073-6.263c-.018-.216-.018-.434-.054-.647-.2-1.234-1.43-1.786-2.43-1.042-.45.336-.86.778-1.17 1.25-1.023 1.576-1.49 3.38-1.95 5.176-.117.45-.198.928-.19 1.39.02.863.526 1.117 1.25.65 1.5-.966 2.61-2.308 3.544-3.8.57-.904 1.036-1.86 1.01-2.977zm-58.816.87c.01-.857-.19-1.65-.82-2.266-.35-.342-.79-.49-1.29-.334-.61.19-.94.64-.99 1.39-.09 1.45.534 2.698 1.176 3.926.33.63.644.61 1.07.02.6-.82.83-1.748.844-2.746zm-14.8-.277c-.16-.525-.27-1.075-.49-1.57-.29-.628-1.04-.91-1.7-.74-.7.184-.977.517-.9 1.377.06.748.232 1.495.43 2.222.146.534.37 1.058.637 1.544.36.65.732.66 1.084.02.486-.876.86-1.79.93-2.86z" fill-rule="evenodd"/></svg>