<svg width="128" height="128" viewBox="0 0 128 128" xmlns="http://www.w3.org/2000/svg"><title>Artboard</title><path d="M116.843 59.69c3.18 0 5.833 1.038 7.96 3.115 2.13 2.076 3.19 4.68 3.188 7.81 0 4.973-2.382 8.304-7.15 9.993l-13.223 4.544 4.307 12.846c.356 1.077.534 2.283.534 3.618 0 3.024-1.077 5.637-3.23 7.84-2.154 2.202-4.745 3.305-7.77 3.308-2.414 0-4.606-.692-6.58-2.076-1.972-1.384-3.343-3.23-4.113-5.54l-4.22-12.69-23.852 8.154 4.23 12.622c.41 1.23.616 2.432.616 3.61 0 3.026-1.078 5.64-3.232 7.84s-4.767 3.305-7.84 3.316c-2.412 0-4.595-.694-6.547-2.08-1.952-1.388-3.31-3.234-4.07-5.54l-4.23-12.535-11.76 4.07c-1.493.466-2.777.698-3.85.698-3.13 0-5.734-1.025-7.81-3.075-2.077-2.05-3.118-4.642-3.123-7.776 0-2.412.703-4.59 2.11-6.538 1.407-1.947 3.243-3.306 5.505-4.075l12-4.076-8.075-24.08L14.61 67.15c-1.33.41-2.562.613-3.69.613-3.073 0-5.663-1.038-7.77-3.115C1.04 62.572-.01 59.995 0 56.916c0-2.412.704-4.592 2.11-6.54 1.408-1.946 3.243-3.304 5.506-4.074l12.078-4.075-4.075-12.233c-.41-1.23-.617-2.433-.617-3.61 0-3.073 1.077-5.7 3.23-7.883 2.155-2.18 4.768-3.273 7.84-3.273 2.413 0 4.596.694 6.548 2.08 1.954 1.388 3.31 3.233 4.072 5.536l4.153 12.307 23.846-8.077-4.15-12.307c-.412-1.234-.617-2.44-.617-3.618 0-3.024 1.09-5.637 3.274-7.84C65.38 1.106 67.98.003 71.002 0c2.412 0 4.605.704 6.578 2.11 1.973 1.408 3.342 3.243 4.11 5.506L85.763 20l12.462-4.23c1.077-.307 2.18-.46 3.308-.46 3.08 0 5.706 1.01 7.883 3.036 2.177 2.025 3.268 4.552 3.274 7.58 0 2.31-.77 4.4-2.308 6.27-1.54 1.868-3.435 3.19-5.686 3.962L92.613 40.31l8.068 24.304 12.623-4.308c1.23-.41 2.406-.616 3.532-.616h.008zm-61.08 20.16l23.85-8.08-8.077-24.227L47.69 55.77l8.072 24.08z" fill="#000" fill-rule="evenodd"/></svg>