<svg width="128" height="128" viewBox="0 0 128 128" xmlns="http://www.w3.org/2000/svg"><path d="M116.843 59.69c3.18 0 5.833 1.038 7.96 3.115 2.13 2.076 3.19 4.68 3.188 7.81 0 4.973-2.38 8.304-7.15 9.993l-13.22 4.544 4.31 12.846c.358 1.077.536 2.283.536 3.618 0 3.024-1.077 5.637-3.23 7.84-2.154 2.202-4.745 3.305-7.77 3.308-2.414 0-4.606-.692-6.58-2.076-1.972-1.384-3.343-3.23-4.113-5.54l-4.22-12.69-23.852 8.154 4.23 12.622c.41 1.23.617 2.432.617 3.61 0 3.026-1.077 5.64-3.23 7.84S59.54 127.99 56.47 128c-2.413 0-4.596-.694-6.548-2.08-1.95-1.388-3.31-3.234-4.07-5.54l-4.23-12.535-11.76 4.07c-1.49.466-2.775.698-3.85.698-3.13 0-5.732-1.025-7.81-3.075-2.075-2.05-3.116-4.642-3.12-7.776 0-2.412.702-4.59 2.11-6.538 1.406-1.947 3.242-3.306 5.504-4.075l12-4.08-8.075-24.08-12.01 4.16c-1.33.41-2.56.61-3.69.61-3.07 0-5.66-1.04-7.77-3.118-2.11-2.075-3.16-4.65-3.15-7.73 0-2.412.708-4.592 2.11-6.54C3.52 48.43 5.357 47.07 7.62 46.3l12.078-4.075-4.075-12.233c-.41-1.23-.62-2.433-.62-3.61 0-3.073 1.077-5.7 3.23-7.883 2.155-2.18 4.77-3.27 7.84-3.27 2.413 0 4.596.69 6.55 2.08 1.95 1.383 3.31 3.23 4.07 5.53l4.153 12.308 23.846-8.076-4.15-12.307c-.41-1.236-.618-2.44-.618-3.62 0-3.025 1.09-5.638 3.277-7.84C65.38 1.105 67.98.002 71 0c2.412 0 4.605.704 6.578 2.11 1.973 1.408 3.342 3.243 4.11 5.506L85.763 20l12.462-4.23c1.077-.307 2.18-.46 3.308-.46 3.08 0 5.706 1.01 7.883 3.036 2.177 2.025 3.268 4.552 3.274 7.58 0 2.31-.77 4.4-2.308 6.27-1.54 1.868-3.435 3.19-5.686 3.962L92.613 40.31l8.068 24.304 12.63-4.308c1.23-.41 2.407-.616 3.53-.616h.01zm-61.08 20.16l23.85-8.08-8.077-24.227L47.69 55.77l8.072 24.08z" fill-rule="evenodd"/></svg>