<svg width="128" height="128" viewBox="0 0 128 128" xmlns="http://www.w3.org/2000/svg"><title>Artboard</title><path d="M128 24.36c-3.63 5.307-8.016 9.828-13.16 13.563.053.758.08 1.895.08 3.41 0 7.035-1.03 14.06-3.092 21.076-2.062 7.015-5.188 13.74-9.378 20.178-4.19 6.436-9.185 12.133-14.985 17.09-5.8 4.958-12.784 8.91-20.952 11.857-8.168 2.947-16.912 4.422-26.232 4.425-14.674 0-28.1-3.926-40.28-11.78 1.895.22 4.007.328 6.335.328 12.182 0 23.037-3.735 32.563-11.206-5.682-.11-10.77-1.855-15.263-5.24-4.493-3.382-7.58-7.7-9.26-12.95 1.79.272 3.442.408 4.958.408 2.326 0 4.625-.298 6.9-.896-6.065-1.25-11.087-4.27-15.068-9.06-3.98-4.79-5.97-10.353-5.97-16.69v-.318c3.68 2.056 7.632 3.162 11.855 3.32-3.578-2.38-6.42-5.493-8.527-9.337-2.107-3.845-3.164-8.014-3.17-12.508 0-4.76 1.19-9.17 3.574-13.234 6.55 8.065 14.52 14.52 23.913 19.365 9.393 4.845 19.45 7.54 30.17 8.08-.433-2.06-.65-4.06-.65-6.002 0-7.257 2.558-13.442 7.673-18.554 5.115-5.112 11.3-7.674 18.555-7.686 7.58 0 13.968 2.762 19.165 8.286 5.912-1.13 11.468-3.238 16.668-6.32-2 6.223-5.845 11.04-11.533 14.452 5.033-.546 10.066-1.9 15.1-4.06l.013.003z" fill="#000" fill-rule="evenodd"/></svg>