<svg width="128" height="128" viewBox="0 0 128 128" xmlns="http://www.w3.org/2000/svg"><path d="M128 24.36c-3.63 5.307-8.016 9.828-13.16 13.563.053.758.08 1.895.08 3.41 0 7.035-1.03 14.06-3.092 21.076-2.062 7.01-5.188 13.74-9.378 20.17-4.19 6.436-9.185 12.133-14.985 17.09-5.8 4.96-12.784 8.91-20.952 11.857-8.168 2.947-16.912 4.422-26.232 4.425-14.67 0-28.1-3.927-40.28-11.78 1.9.22 4.01.327 6.34.327 12.18 0 23.04-3.736 32.566-11.207-5.682-.11-10.77-1.855-15.263-5.24-4.493-3.38-7.58-7.7-9.26-12.95 1.79.272 3.44.41 4.958.41 2.327 0 4.626-.3 6.9-.898-6.064-1.25-11.086-4.27-15.067-9.06C7.19 60.77 5.2 55.205 5.2 48.87v-.32c3.68 2.057 7.63 3.163 11.854 3.32-3.576-2.38-6.42-5.492-8.525-9.336-2.11-3.844-3.17-8.014-3.17-12.508 0-4.76 1.19-9.17 3.57-13.235 6.55 8.07 14.52 14.52 23.914 19.37 9.394 4.846 19.45 7.54 30.17 8.08-.432-2.06-.65-4.06-.65-6 0-7.26 2.56-13.443 7.674-18.555 5.11-5.108 11.293-7.67 18.55-7.68 7.58 0 13.966 2.76 19.163 8.285 5.914-1.13 11.47-3.24 16.67-6.32-2 6.222-5.844 11.04-11.532 14.45 5.03-.546 10.06-1.9 15.1-4.06l.01.003z" fill-rule="evenodd"/></svg>