<svg width="128" height="128" viewBox="0 0 128 128" xmlns="http://www.w3.org/2000/svg"><title>Artboard</title><path d="M78.436 88.856v15.072c0 3.19-.93 4.784-2.788 4.784-1.093 0-2.165-.524-3.216-1.572v-21.5c1.045-1.048 2.116-1.572 3.212-1.572 1.856 0 2.784 1.595 2.784 4.784l.008.004zm24.14.072v3.28h-6.428v-3.28c0-3.237 1.072-4.856 3.216-4.856s3.216 1.62 3.216 4.856h-.004zm-69-15.568h7.64v-6.72h-22.28v6.72h7.5V114h7.144V73.36h-.004zM54.148 114h6.36V78.72h-6.36v27c-1.43 2-2.787 3-4.072 3-.853 0-1.353-.5-1.5-1.504-.048-.144-.072-.977-.072-2.5v-26h-6.36v27.92c0 2.336.192 4.076.576 5.22.573 1.76 1.956 2.64 4.148 2.64 2.285 0 4.712-1.45 7.28-4.352V114zm30.64-10.572V89.36c0-3.48-.213-5.84-.64-7.08-.81-2.667-2.5-4-5.072-4-2.38 0-4.595 1.287-6.64 3.86v-15.5h-6.36V114h6.36v-3.432c2.14 2.62 4.355 3.928 6.64 3.928 2.57 0 4.26-1.31 5.072-3.928.427-1.285.64-3.667.64-7.144v.004zm24.144-.712v-.932h-6.496c0 2.427-.05 3.88-.148 4.36-.333 1.712-1.285 2.568-2.856 2.568-2.192 0-3.288-1.644-3.288-4.932v-6.216h12.784v-7.36c0-3.76-.643-6.52-1.928-8.28-1.856-2.427-4.38-3.64-7.572-3.64-3.24 0-5.79 1.213-7.648 3.64-1.333 1.76-2 4.52-2 8.28v12.36c0 3.76.69 6.52 2.072 8.28 1.856 2.432 4.43 3.648 7.72 3.648 3.427 0 5.997-1.26 7.712-3.784.853-1.288 1.353-2.575 1.5-3.86.093-.427.14-1.808.14-4.144l.008.012zm-43.428-65.22v-15c0-3.285-1.024-4.928-3.072-4.928s-3.075 1.643-3.08 4.928v15c0 3.333 1.027 5 3.08 5s3.076-1.667 3.068-5h.004zm51.36 53.64c0 11.147-.62 19.48-1.86 25-.667 2.813-2.048 5.173-4.144 7.08s-4.523 3-7.28 3.28C94.812 127.5 81.595 128 63.928 128s-30.88-.5-39.64-1.5c-2.765-.285-5.205-1.38-7.32-3.28s-3.485-4.26-4.112-7.08C11.62 110.807 11 102.473 11 91.14c0-11.14.62-19.475 1.856-25 .667-2.808 2.048-5.164 4.144-7.068s4.55-3.024 7.36-3.36c8.712-.95 21.9-1.424 39.568-1.424 17.667 0 30.88.476 39.64 1.428 2.765.33 5.205 1.448 7.32 3.352s3.485 4.26 4.112 7.072c1.237 5.333 1.856 13.667 1.856 25l.008-.004zM45.572 0h7.28l-8.64 28.5v19.36h-7.136V28.5c-.667-3.52-2.12-8.568-4.36-15.144C30.956 8.452 29.41 4 28.076 0h7.56l5.08 18.784L45.572 0zM72 23.784V36.28c0 3.86-.667 6.67-2 8.432-1.76 2.427-4.284 3.64-7.572 3.64-3.192 0-5.693-1.213-7.504-3.64-1.333-1.813-2-4.623-2-8.428V23.788c0-3.813.667-6.6 2-8.36 1.813-2.427 4.313-3.64 7.5-3.64 3.28 0 5.803 1.213 7.568 3.64 1.333 1.765 2 4.552 2 8.36l.008-.004zm23.928-11.568v35.64h-6.492v-3.92c-2.525 2.95-4.98 4.424-7.36 4.424-2.187 0-3.592-.88-4.216-2.64-.38-1.147-.572-2.933-.572-5.36V12.216h6.5v26.216c0 1.573.024 2.407.072 2.5.144 1.048.644 1.572 1.5 1.572 1.288 0 2.648-1.024 4.08-3.072V12.216h6.496-.008z" fill="#000" fill-rule="evenodd"/></svg>